<?xml version="1.0" standalone="no"?>
<!DOCTYPE svg PUBLIC "-//W3C//DTD SVG 20010904//EN"
 "http://www.w3.org/TR/2001/REC-SVG-20010904/DTD/svg10.dtd">
<svg version="1.0" xmlns="http://www.w3.org/2000/svg"
 width="512.000000pt" height="512.000000pt" viewBox="0 0 512.000000 512.000000"
 preserveAspectRatio="xMidYMid meet">
<metadata>
Created by potrace 1.11, written by Peter Selinger 2001-2013
</metadata>
<g transform="translate(0.000000,512.000000) scale(0.100000,-0.100000)"
fill="#000000" stroke="none">
<path d="M63 4762 c-13 -2 -32 -15 -43 -29 -20 -26 -20 -30 -18 -2179 l3
-2153 23 -23 23 -23 2509 0 2509 0 23 23 23 23 3 1427 c1 785 0 1442 -3 1460
-12 68 9 66 -644 66 l-586 1 -1 310 c-1 171 -2 318 -3 328 0 10 -12 29 -26 42
l-24 25 -901 0 -900 0 0 324 0 325 -24 28 -24 28 -949 0 c-521 1 -958 -1 -970
-3z m554 -437 l0 -265 -219 0 c-167 0 -218 3 -219 13 -3 39 -4 503 -1 510 2 4
101 7 221 7 l218 0 0 -265z m1238 15 c0 -135 -1 -253 -4 -262 -3 -17 -37 -18
-530 -18 l-527 0 0 265 1 265 530 -2 529 -3 1 -245z m-625 -459 c10 -2 5 -521
-5 -522 -5 -1 -243 -3 -527 -3 -460 -2 -518 0 -519 14 0 8 -2 125 -2 258 -2
178 1 246 10 250 9 5 1019 8 1043 3z m1238 -262 l2 -265 -527 1 -528 0 -1 262
c-1 260 -1 262 20 265 11 2 248 3 526 3 l505 -1 3 -265z m1239 20 c1 -134 0
-253 -2 -265 -4 -20 -8 -20 -530 -20 l-525 0 0 262 c0 143 2 263 4 265 2 2
240 4 528 3 l523 0 2 -245z m-3091 -726 l1 -263 -217 0 c-166 0 -219 3 -222
13 -3 10 -2 443 1 498 1 15 25 16 219 15 l217 -1 1 -262z m1236 248 c2 -9 3
-126 3 -261 l-1 -245 -530 -3 -529 -2 -1 257 c0 143 3 261 8 264 5 3 243 6
528 6 466 0 519 -2 522 -16z m1238 -248 l0 -263 -530 0 -530 0 0 263 0 264
530 0 530 0 0 -264z m1236 -1 l0 -262 -530 2 -530 3 0 258 c-1 142 0 260 2
261 1 2 239 2 530 2 l527 -1 1 -263z m614 258 c3 -5 5 -122 4 -262 l0 -253
-221 -3 -220 -2 0 263 1 264 215 0 c119 0 218 -3 221 -7z m-3706 -952 c-1
-139 -2 -258 -3 -264 -1 -8 -153 -11 -528 -11 l-528 0 2 256 c0 141 2 259 2
264 1 4 238 7 529 7 l527 0 -1 -252z m1236 -12 l0 -263 -527 1 -528 1 -1 263
-2 262 529 0 529 0 0 -264z m1237 2 l-2 -263 -527 -1 -528 -1 0 263 0 264 529
0 530 0 -2 -262z m1236 5 c-1 -142 -2 -261 -2 -264 -1 -3 -238 -5 -528 -5
l-528 1 0 263 0 262 530 0 530 0 -2 -257z m-4328 -712 l0 -265 -218 0 c-210
-1 -217 0 -218 19 -3 60 -4 492 -1 501 2 7 75 10 220 10 l217 -1 0 -264z
m1236 254 c6 -80 2 -508 -6 -513 -17 -11 -1036 -8 -1044 3 -6 8 -8 470 -2 510
2 15 1051 15 1052 0z m1239 -251 c0 -241 -1 -262 -17 -265 -10 -2 -247 -4
-528 -4 l-510 0 -3 266 -2 265 530 0 530 0 0 -262z m1231 256 c1 -3 2 -121 4
-262 1 -180 -2 -258 -9 -259 -6 -1 -244 -2 -528 -3 -454 -1 -518 1 -519 14 -3
39 -4 496 -1 505 3 11 1051 16 1053 5z m619 1 c3 0 5 -118 5 -261 0 -143 -2
-260 -5 -261 -3 -1 -101 -2 -218 -3 -181 -1 -213 1 -216 14 -6 20 -5 481 0
501 4 14 30 15 217 14 116 -2 214 -3 217 -4z m-3705 -968 l0 -263 -530 0 -530
0 2 257 c1 142 2 261 2 266 1 4 238 6 528 5 l528 -3 0 -262z m1235 2 l0 -265
-529 0 -530 0 1 265 0 265 529 0 529 0 0 -265z m1238 0 l0 -265 -529 0 -529 0
0 265 0 265 529 0 529 0 0 -265z m1236 3 l0 -263 -530 -3 -529 -2 0 265 0 265
530 0 530 0 -1 -262z"/>
</g>
</svg>
